<svg width="240" height="202" viewBox="0 0 240 202" fill="none" xmlns="http://www.w3.org/2000/svg">
<mask id="mask0_117_45" style="mask-type:alpha" maskUnits="userSpaceOnUse" x="0" y="0" width="240" height="202">
<g clip-path="url(#clip0_117_45)">
<path d="M110.322 201.751H30.9632C13.8913 201.751 0 187.859 0 170.787V157.567C0 145.756 6.56743 135.148 17.1234 129.87L75.0956 100.884L17.1234 71.8807C6.56743 66.6026 0 55.995 0 44.184V30.9632C0 13.8913 13.8913 0 30.9632 0H110.322V31.5305H31.5305V43.8573L90.0184 73.1013C100.609 78.3965 107.193 89.0385 107.193 100.884C107.193 112.729 100.609 123.371 90.0184 128.667L31.5305 157.91V170.237H110.34V201.768L110.322 201.751Z" fill="black"/>
<path d="M208.609 201.751H129.25V170.22H208.059V157.893L149.571 128.649C138.981 123.354 132.396 112.712 132.396 100.867C132.396 89.0213 138.981 78.3793 149.571 73.0841L208.059 43.8402V31.5133H129.25V0H208.609C225.681 0 239.572 13.8913 239.572 30.9632V44.184C239.572 55.9951 233.005 66.6027 222.449 71.8807L164.477 100.867L222.449 129.853C233.005 135.131 239.572 145.738 239.572 157.549V170.77C239.572 187.842 225.681 201.733 208.609 201.733V201.751Z" fill="black"/>
</g>
</mask>
<g mask="url(#mask0_117_45)">
<rect width="239.574" height="201.607" fill="black"/>
</g>
<defs>
<clipPath id="clip0_117_45">
<rect width="239.574" height="201.751" fill="white"/>
</clipPath>
</defs>
</svg>
