<svg width="368" height="368" viewBox="0 0 368 368" fill="none" xmlns="http://www.w3.org/2000/svg">
<rect width="368" height="368" fill="black"/>
<mask id="mask0_117_140" style="mask-type:alpha" maskUnits="userSpaceOnUse" x="64" y="83" width="240" height="202">
<g clip-path="url(#clip0_117_140)">
<path d="M174.322 284.751H94.9632C77.8913 284.751 64 270.859 64 253.787V240.567C64 228.756 70.5674 218.148 81.1234 212.87L139.096 183.884L81.1234 154.881C70.5674 149.603 64 138.995 64 127.184V113.963C64 96.8913 77.8913 83 94.9632 83H174.322V114.531H95.5305V126.857L154.018 156.101C164.609 161.396 171.193 172.038 171.193 183.884C171.193 195.729 164.609 206.371 154.018 211.667L95.5305 240.91V253.237H174.34V284.768L174.322 284.751Z" fill="black"/>
<path d="M272.609 284.751H193.25V253.22H272.059V240.893L213.571 211.649C202.981 206.354 196.396 195.712 196.396 183.867C196.396 172.021 202.981 161.379 213.571 156.084L272.059 126.84V114.513H193.25V83H272.609C289.681 83 303.572 96.8913 303.572 113.963V127.184C303.572 138.995 297.005 149.603 286.449 154.881L228.477 183.867L286.449 212.853C297.005 218.131 303.572 228.738 303.572 240.549V253.77C303.572 270.842 289.681 284.733 272.609 284.733V284.751Z" fill="black"/>
</g>
</mask>
<g mask="url(#mask0_117_140)">
<rect width="239.574" height="201.607" transform="translate(64 83)" fill="white"/>
</g>
<defs>
<clipPath id="clip0_117_140">
<rect width="239.574" height="201.751" fill="white" transform="translate(64 83)"/>
</clipPath>
</defs>
</svg>
