<svg width="603" height="212" viewBox="0 0 603 212" fill="none" xmlns="http://www.w3.org/2000/svg">
<rect width="602.237" height="211.457" fill="white"/>
<path d="M110.943 161.448H67.1042C57.6736 161.448 50 153.774 50 144.344V137.04C50 130.516 53.6279 124.656 59.4591 121.741L91.4831 105.729L59.4591 89.7072C53.6279 86.7916 50 80.9319 50 74.4074V67.1042C50 57.6736 57.6736 50 67.1042 50H110.943V67.4176H67.4176V74.227L99.7266 90.3815C105.577 93.3065 109.214 99.1852 109.214 105.729C109.214 112.272 105.577 118.151 99.7266 121.076L67.4176 137.23V144.04H110.952V161.457L110.943 161.448Z" fill="black"/>
<path d="M165.238 161.448H121.4V144.03H164.934V137.221L132.625 121.066C126.775 118.141 123.137 112.263 123.137 105.719C123.137 99.1757 126.775 93.2971 132.625 90.372L164.934 74.2175V67.4081H121.4V50H165.238C174.668 50 182.342 57.6736 182.342 67.1042V74.4074C182.342 80.9319 178.714 86.7916 172.883 89.7072L140.859 105.719L172.883 121.731C178.714 124.647 182.342 130.506 182.342 137.031V144.334C182.342 153.765 174.668 161.438 165.238 161.438V161.448Z" fill="black"/>
<path d="M224.344 140.879V72.7122H265.483V80.0348H232.598V103.068H263.353V110.39H232.598V133.556H266.016V140.879H224.344Z" fill="black"/>
<path d="M277.422 140.879V89.7538H285.01V97.742H285.676C286.741 95.0127 288.461 92.8936 290.835 91.3847C293.209 89.8537 296.061 89.0881 299.389 89.0881C302.762 89.0881 305.569 89.8537 307.81 91.3847C310.074 92.8936 311.838 95.0127 313.102 97.742H313.635C314.944 95.1015 316.908 93.0046 319.526 91.4513C322.145 89.8758 325.284 89.0881 328.946 89.0881C333.517 89.0881 337.256 90.5193 340.163 93.3818C343.069 96.2221 344.523 100.649 344.523 106.662V140.879H336.668V106.662C336.668 102.89 335.636 100.194 333.572 98.5741C331.509 96.9543 329.079 96.1444 326.283 96.1444C322.688 96.1444 319.903 97.2317 317.929 99.4063C315.954 101.559 314.966 104.288 314.966 107.594V140.879H306.978V105.863C306.978 102.957 306.035 100.616 304.149 98.8404C302.263 97.0431 299.833 96.1444 296.86 96.1444C294.818 96.1444 292.91 96.688 291.135 97.7753C289.382 98.8626 287.962 100.371 286.874 102.302C285.809 104.21 285.277 106.418 285.277 108.926V140.879H277.422Z" fill="black"/>
<path d="M357.01 140.879V89.7538H364.599V97.742H365.265C366.33 95.0127 368.05 92.8936 370.424 91.3847C372.798 89.8537 375.65 89.0881 378.978 89.0881C382.351 89.0881 385.158 89.8537 387.399 91.3847C389.662 92.8936 391.426 95.0127 392.691 97.742H393.224C394.533 95.1015 396.497 93.0046 399.115 91.4513C401.733 89.8758 404.873 89.0881 408.535 89.0881C413.106 89.0881 416.844 90.5193 419.751 93.3818C422.658 96.2221 424.112 100.649 424.112 106.662V140.879H416.256V106.662C416.256 102.89 415.225 100.194 413.161 98.5741C411.097 96.9543 408.668 96.1444 405.872 96.1444C402.277 96.1444 399.492 97.2317 397.517 99.4063C395.543 101.559 394.555 104.288 394.555 107.594V140.879H386.567V105.863C386.567 102.957 385.624 100.616 383.738 98.8404C381.852 97.0431 379.422 96.1444 376.448 96.1444C374.407 96.1444 372.499 96.688 370.724 97.7753C368.971 98.8626 367.55 100.371 366.463 102.302C365.398 104.21 364.865 106.418 364.865 108.926V140.879H357.01Z" fill="black"/>
<path d="M436.599 140.879V89.7538H444.454V140.879H436.599ZM440.593 81.233C439.062 81.233 437.742 80.7116 436.632 79.6686C435.545 78.6257 435.002 77.372 435.002 75.9075C435.002 74.443 435.545 73.1893 436.632 72.1464C437.742 71.1035 439.062 70.582 440.593 70.582C442.124 70.582 443.434 71.1035 444.521 72.1464C445.63 73.1893 446.185 74.443 446.185 75.9075C446.185 77.372 445.63 78.6257 444.521 79.6686C443.434 80.7116 442.124 81.233 440.593 81.233Z" fill="black"/>
<path d="M485.314 140.879H476.661L501.69 72.7122H510.211L535.241 140.879H526.587L506.217 83.4963H505.684L485.314 140.879ZM488.51 114.251H523.392V121.574H488.51V114.251Z" fill="black"/>
<path d="M552.239 72.7122V140.879H543.984V72.7122H552.239Z" fill="black"/>
</svg>
