<svg width="368" height="368" viewBox="0 0 368 368" fill="none" xmlns="http://www.w3.org/2000/svg">
<rect width="368" height="368" fill="white"/>
<mask id="mask0_117_141" style="mask-type:alpha" maskUnits="userSpaceOnUse" x="65" y="83" width="240" height="202">
<g clip-path="url(#clip0_117_141)">
<path d="M175.322 284.751H95.9632C78.8913 284.751 65 270.859 65 253.787V240.567C65 228.756 71.5674 218.148 82.1234 212.87L140.096 183.884L82.1234 154.881C71.5674 149.603 65 138.995 65 127.184V113.963C65 96.8913 78.8913 83 95.9632 83H175.322V114.531H96.5305V126.857L155.018 156.101C165.609 161.396 172.193 172.038 172.193 183.884C172.193 195.729 165.609 206.371 155.018 211.667L96.5305 240.91V253.237H175.34V284.768L175.322 284.751Z" fill="black"/>
<path d="M273.609 284.751H194.25V253.22H273.059V240.893L214.571 211.649C203.981 206.354 197.396 195.712 197.396 183.867C197.396 172.021 203.981 161.379 214.571 156.084L273.059 126.84V114.513H194.25V83H273.609C290.681 83 304.572 96.8913 304.572 113.963V127.184C304.572 138.995 298.005 149.603 287.449 154.881L229.477 183.867L287.449 212.853C298.005 218.131 304.572 228.738 304.572 240.549V253.77C304.572 270.842 290.681 284.733 273.609 284.733V284.751Z" fill="black"/>
</g>
</mask>
<g mask="url(#mask0_117_141)">
<rect width="239.574" height="201.607" transform="translate(65 83)" fill="black"/>
</g>
<defs>
<clipPath id="clip0_117_141">
<rect width="239.574" height="201.751" fill="white" transform="translate(65 83)"/>
</clipPath>
</defs>
</svg>
