<svg width="120" height="120" viewBox="0 0 120 120" fill="none" xmlns="http://www.w3.org/2000/svg">
<path d="M65.1396 8.30469C67.4546 8.55527 69.7239 8.95769 71.9375 9.50195L76.3408 2.2627L83.8584 4.99902L82.5742 13.3975C84.7021 14.454 86.747 15.6524 88.6973 16.9795L94.9121 12.0029L101.04 17.1455L97.1846 24.1904C98.7482 25.8363 100.203 27.5864 101.542 29.4258L109.902 26.5977L113.902 33.5264L107.232 39.3867C108.144 41.4955 108.919 43.6765 109.549 45.9189L118.178 46.1162L119.566 53.9951L111.403 57.1787C111.453 58.1128 111.479 59.0534 111.479 60C111.479 61.2766 111.432 62.5424 111.342 63.7959L119.566 67.0049L118.178 74.8838L109.256 75.0869C108.684 76.9765 108.007 78.8204 107.232 80.6123L113.902 86.4736L109.902 93.4023L101.542 90.5732C100.104 92.5483 98.5307 94.4179 96.835 96.1689L101.04 103.854L94.9121 108.997L88.0176 103.476C86.2735 104.623 84.4561 105.667 82.5742 106.602L83.8584 115.001L76.3408 117.737L71.9375 110.497C69.7239 111.041 67.4546 111.444 65.1396 111.694L63.4795 120H55.4795L53.8184 111.694C51.5684 111.451 49.3615 111.064 47.207 110.543L42.8164 117.763L35.2988 115.026L36.5713 106.693C34.6129 105.731 32.7231 104.65 30.9131 103.458L23.9062 109.07L17.7773 103.929L22.0596 96.1035C20.4881 94.4751 19.0218 92.7449 17.6719 90.9229L9.97949 93.5264L5.97949 86.5977L12.0225 81.2861C11.1138 79.2635 10.3303 77.1724 9.68262 75.0225L1.38965 74.833L0 66.9541L7.62891 63.9775C7.52961 62.6647 7.47949 61.3382 7.47949 60C7.47949 58.9917 7.50881 57.9902 7.56543 56.9961L0 54.0459L1.38965 46.167L9.39062 45.9834C10.0901 43.4785 10.9726 41.0499 12.0225 38.7129L5.97949 33.4023L9.97949 26.4736L17.6719 29.0762C18.9217 27.3893 20.2705 25.7804 21.7109 24.2588L17.7773 17.0713L23.9062 11.9297L30.2344 16.9971C32.2496 15.6239 34.3666 14.3893 36.5713 13.3057L35.2988 4.97363L42.8164 2.2373L47.207 9.45605C49.3615 8.93478 51.5685 8.54828 53.8184 8.30469L55.4795 0H63.4795L65.1396 8.30469ZM59.4795 16C35.179 16 15.4795 35.6995 15.4795 60C15.4795 84.3005 35.179 104 59.4795 104C83.78 104 103.479 84.3005 103.479 60C103.479 35.6995 83.78 16 59.4795 16ZM56.5693 42.0283H36.5078V45.167L51.4004 52.6133C54.0965 53.9615 55.7733 56.6708 55.7734 59.6865C55.7734 62.7025 54.0967 65.4124 51.4004 66.7607L36.5078 74.207V77.3457H56.5742V85.374L56.5693 85.3691H36.3633C32.0165 85.3691 28.4795 81.8321 28.4795 77.4854V74.1191C28.4796 71.112 30.1522 68.4112 32.8398 67.0674L47.6006 59.6865L32.8398 52.3018C30.1521 50.9579 28.4795 48.2573 28.4795 45.25V41.8838C28.4795 37.537 32.0165 34.0001 36.3633 34H56.5693V42.0283ZM81.5957 34C85.9425 34 89.4795 37.537 89.4795 41.8838V45.25C89.4795 48.2571 87.8076 50.9578 85.1201 52.3018L70.3594 59.6826L85.1201 67.0635C87.8076 68.4074 89.4795 71.1081 89.4795 74.1152V77.4814C89.4795 81.8282 85.9425 85.3652 81.5957 85.3652V85.3691H61.3896V77.3408H81.4561V74.2031L66.5635 66.7568C63.867 65.4086 62.1904 62.6987 62.1904 59.6826C62.1904 56.6666 63.867 53.9567 66.5635 52.6084L81.4561 45.1621V42.0234H61.3896V34H81.5957Z" fill="url(#paint0_linear_467_2)"/>
<defs>
<linearGradient id="paint0_linear_467_2" x1="119.566" y1="0" x2="5.81478" y2="0" gradientUnits="userSpaceOnUse">
<stop stop-color="#FFC19A"/>
<stop offset="0.197115" stop-color="#DD537C"/>
<stop offset="0.423077" stop-color="#B1437D"/>
<stop offset="1" stop-color="#734CB0"/>
</linearGradient>
</defs>
</svg>
